<svg xmlns="http://www.w3.org/2000/svg" width="512" height="512" viewBox="0 0 512 512" fill="none">
  <rect width="512" height="512" fill="#ffffff"/>
  <circle cx="256" cy="256" r="224" fill="#f8fafc"/>
  <circle cx="256" cy="256" r="210" stroke="#e2e8f0" stroke-width="12"/>
  <g transform="translate(112 112) scale(12)" stroke="#2563eb" stroke-width="2" stroke-linecap="round" stroke-linejoin="round">
    <path d="M12 7v14"/>
    <path d="M16 12h2"/>
    <path d="M16 8h2"/>
    <path d="M3 18a1 1 0 0 1-1-1V4a1 1 0 0 1 1-1h5a4 4 0 0 1 4 4 4 4 0 0 1 4-4h5a1 1 0 0 1 1 1v13a1 1 0 0 1-1 1h-6a3 3 0 0 0-3 3 3 3 0 0 0-3-3z"/>
    <path d="M6 12h2"/>
    <path d="M6 8h2"/>
  </g>
</svg>
